<?xml version="1.0" standalone="no"?>
<!DOCTYPE svg PUBLIC "-//W3C//DTD SVG 20010904//EN"
 "http://www.w3.org/TR/2001/REC-SVG-20010904/DTD/svg10.dtd">
<svg version="1.0" xmlns="http://www.w3.org/2000/svg"
 width="500.000000pt" height="500.000000pt" viewBox="0 0 500.000000 500.000000"
 preserveAspectRatio="xMidYMid meet">
<metadata>
Created by potrace 1.14, written by Peter Selinger 2001-2017
</metadata>
<g transform="translate(0.000000,500.000000) scale(0.100000,-0.100000)"
fill="#000000" stroke="none">
<path d="M3442 3440 c-259 -27 -490 -120 -642 -258 -167 -150 -274 -384 -299
-652 -13 -140 2 -351 34 -475 106 -407 402 -663 828 -714 103 -12 325 3 430
30 223 56 388 186 487 382 80 160 110 312 110 568 l0 179 -460 0 -460 0 0
-120 0 -120 329 0 c187 0 332 -4 335 -9 9 -14 -12 -197 -30 -260 -57 -197
-194 -336 -379 -385 -88 -24 -237 -31 -336 -17 -309 46 -513 234 -591 548 -29
116 -32 379 -5 486 80 321 294 504 641 547 116 15 372 8 463 -13 l61 -14 16
86 c9 47 18 105 22 127 l6 41 -48 12 c-145 33 -366 46 -512 31z"/>
<path d="M1401 3429 c-326 -42 -511 -232 -511 -524 0 -181 42 -289 152 -398
92 -91 194 -145 417 -222 208 -71 284 -110 343 -173 77 -82 100 -212 58 -325
-35 -94 -112 -151 -247 -184 -103 -25 -353 -21 -508 7 -66 12 -132 24 -146 27
-25 5 -27 2 -53 -101 -14 -58 -26 -112 -26 -120 0 -34 430 -83 620 -71 255 17
400 66 511 172 97 92 142 212 142 377 0 178 -43 294 -150 401 -81 80 -200 143
-408 215 -313 108 -414 191 -431 356 -27 256 209 374 636 319 63 -8 145 -23
182 -33 l68 -19 9 36 c33 123 52 204 49 206 -7 6 -218 45 -298 55 -98 12 -316
11 -409 -1z"/>
</g>
</svg>
